<?xml version="1.0" standalone="no"?>
<!DOCTYPE svg PUBLIC "-//W3C//DTD SVG 20010904//EN"
 "http://www.w3.org/TR/2001/REC-SVG-20010904/DTD/svg10.dtd">
<svg version="1.0" xmlns="http://www.w3.org/2000/svg"
 width="512.000000pt" height="512.000000pt" viewBox="0 0 512.000000 512.000000"
 preserveAspectRatio="xMidYMid meet">

<g transform="translate(0.000000,512.000000) scale(0.100000,-0.100000)"
fill="#000000" stroke="none">
<path d="M2340 4984 c-19 -2 -82 -11 -140 -20 -973 -145 -1771 -876 -2003
-1835 -52 -211 -62 -307 -62 -569 0 -312 24 -473 111 -742 262 -813 939 -1436
1767 -1627 203 -47 292 -56 557 -55 229 1 270 3 400 27 342 62 640 180 923
367 584 386 956 967 1074 1675 25 156 25 554 0 710 -78 465 -255 859 -545
1205 -317 379 -742 653 -1217 784 -218 60 -349 78 -605 81 -124 2 -241 1 -260
-1z m570 -252 c541 -92 1008 -363 1360 -789 188 -228 349 -550 425 -852 47
-189 60 -301 60 -531 0 -230 -13 -342 -61 -533 -196 -783 -818 -1405 -1603
-1602 -192 -48 -301 -60 -536 -59 -251 0 -382 18 -593 78 -761 219 -1345 822
-1537 1585 -47 189 -60 301 -60 531 0 230 13 342 60 531 115 456 379 870 752
1179 320 264 747 437 1198 484 98 10 424 -3 535 -22z"/>
<path d="M2521 4327 c-19 -7 -44 -25 -55 -40 -21 -28 -21 -34 -24 -876 -3
-918 -3 -904 51 -945 28 -21 37 -21 611 -24 453 -2 591 0 621 10 45 15 85 66
85 108 0 40 -40 93 -80 107 -25 9 -177 12 -542 12 l-508 1 -1 773 c0 571 -3
781 -12 806 -21 60 -84 89 -146 68z"/>
</g>
</svg>
