<svg width="185" height="195" viewBox="0 0 185 195" fill="none" xmlns="http://www.w3.org/2000/svg">
<ellipse cx="141" cy="44.3411" rx="44" ry="44.3411" fill="#85ACFB"/>
<line x1="55" y1="161.682" x2="55" y2="193.93" stroke="black" stroke-width="4"/>
<line x1="92" y1="162" x2="92" y2="194.248" stroke="black" stroke-width="4"/>
<line x1="129" y1="161.682" x2="129" y2="193.93" stroke="black" stroke-width="4"/>
<path d="M98.6478 28.8922C90.7289 30.1283 82.81 33.4589 76.7212 38.1973C70.5972 42.9358 65.0716 50.3524 62.5375 57.2541L61.7632 59.3486L58.8772 58.4902C54.9002 57.3571 48.3539 57.0824 44.1656 57.8721C36.2467 59.4516 29.1021 64.1214 24.5267 70.7826C21.6055 75.0747 20.0217 79.4698 19.3882 85.3069C19.177 87.2298 19.1418 87.2985 17.4877 88.0882C15.2352 89.2213 10.519 92.6893 9.00563 94.3374C5.20454 98.4578 2.17775 103.952 0.840336 109.102C-0.28591 113.463 -0.28591 120.227 0.875532 124.347C4.0783 135.988 12.5251 144.331 24.6675 147.834C27.096 148.52 27.6591 148.52 85.2033 148.623C148.625 148.761 146.161 148.829 152.215 146.769C164.533 142.683 173.86 133.55 177.943 121.669C182.764 107.591 178.963 92.0026 168.088 81.4269C163.724 77.1349 157.353 73.2549 152.285 71.7784C150.948 71.4007 150.842 71.2977 150.666 69.7869C149.54 60.413 147.112 53.8204 142.466 47.4682C135.673 38.2317 125.854 31.8451 114.591 29.4072C111.494 28.7548 101.745 28.4458 98.6478 28.8922ZM111.987 35.2444C129.936 38.3004 143.24 52.9964 144.402 71.0917C144.683 75.7271 144.894 76.0361 148.59 77.1349C152.813 78.371 155.066 79.4011 158.409 81.5986C165.589 86.2684 170.798 93.5134 172.839 101.754C174.177 107.076 173.79 114.562 171.924 119.952C168.44 130.013 159.747 138.082 148.871 141.413L145.739 142.374H86.963C37.6897 142.374 27.9055 142.305 26.4273 141.893C17.2061 139.387 10.3782 133.035 7.35145 124.176C6.54196 121.772 6.43637 120.845 6.40118 116.965C6.40118 111.643 6.89391 109.514 9.2168 104.879C11.8564 99.6596 16.6078 95.1958 22.1686 92.758C23.4357 92.2086 24.6675 91.4188 24.9491 90.9725C25.2658 90.4917 25.5474 88.8436 25.653 86.7491C25.7937 84.8606 26.1105 82.3883 26.4273 81.2552C28.7501 72.9802 35.6132 66.3532 44.0601 64.2587C49.3393 62.9196 56.2024 63.572 60.7074 65.7695C64.0509 67.452 66.2682 66.6623 67.0777 63.5376C70.0693 52.0006 79.3608 41.631 90.4473 37.4419C93.1574 36.4118 97.4864 35.2787 99.6333 34.9697C102.308 34.6264 109.136 34.7637 111.987 35.2444Z" fill="black"/>
</svg>
