<svg width="185" height="150" viewBox="0 0 185 150" fill="none" xmlns="http://www.w3.org/2000/svg">
<ellipse cx="141" cy="45.3411" rx="44" ry="44.3411" fill="#F2E7A0"/>
<path d="M46.1439 29.5C46.1439 37.8088 39.1746 44.6512 30.4439 44.6512C21.7132 44.6512 14.7439 37.8088 14.7439 29.5C14.7439 21.1912 21.7132 14.3488 30.4439 14.3488C39.1746 14.3488 46.1439 21.1912 46.1439 29.5Z" fill="#F8DD3B" stroke="black" stroke-width="4"/>
<line x1="31.972" x2="31.972" y2="9.14729" stroke="black" stroke-width="4"/>
<line x1="31.972" y1="49.8527" x2="31.972" y2="59" stroke="black" stroke-width="4"/>
<line y1="-2" x2="9.2948" y2="-2" transform="matrix(-0.718153 0.695885 -0.718153 -0.695885 51.515 9.14729)" stroke="black" stroke-width="4"/>
<line x1="49.5601" y1="27.5" x2="59.0001" y2="27.5" stroke="black" stroke-width="4"/>
<line y1="27.5" x2="9.44" y2="27.5" stroke="black" stroke-width="4"/>
<line y1="-2" x2="9.2948" y2="-2" transform="matrix(-0.718153 -0.695885 0.718153 -0.695885 16.1151 15.6154)" stroke="black" stroke-width="4"/>
<line y1="-2" x2="9.2948" y2="-2" transform="matrix(-0.718153 -0.695885 0.718153 -0.695885 51.515 49.9177)" stroke="black" stroke-width="4"/>
<line y1="-2" x2="9.2948" y2="-2" transform="matrix(-0.718153 0.695885 -0.718153 -0.695885 16.1151 43.4496)" stroke="black" stroke-width="4"/>
<path d="M98.6478 29.8922C90.7289 31.1283 82.81 34.4589 76.7212 39.1974C70.5972 43.9358 65.0716 51.3525 62.5375 58.2541L61.7632 60.3486L58.8772 59.4902C54.9002 58.3571 48.3539 58.0824 44.1656 58.8721C36.2467 60.4516 29.1021 65.1214 24.5267 71.7826C21.6055 76.0747 20.0217 80.4698 19.3882 86.307C19.177 88.2298 19.1418 88.2985 17.4877 89.0882C15.2352 90.2213 10.519 93.6893 9.00563 95.3374C5.20454 99.4578 2.17775 104.952 0.840336 110.102C-0.28591 114.463 -0.28591 121.227 0.875532 125.348C4.0783 136.988 12.5251 145.331 24.6675 148.834C27.096 149.52 27.6591 149.52 85.2033 149.623C148.625 149.761 146.161 149.829 152.215 147.769C164.533 143.683 173.86 134.55 177.943 122.669C182.764 108.591 178.963 93.0026 168.088 82.4269C163.724 78.1349 157.353 74.2549 152.285 72.7784C150.948 72.4007 150.842 72.2977 150.666 70.7869C149.54 61.413 147.112 54.8204 142.466 48.4682C135.673 39.2317 125.854 32.8451 114.591 30.4072C111.494 29.7548 101.745 29.4458 98.6478 29.8922ZM111.987 36.2444C129.936 39.3004 143.24 53.9964 144.402 72.0917C144.683 76.7271 144.894 77.0361 148.59 78.1349C152.813 79.371 155.066 80.4011 158.409 82.5986C165.589 87.2684 170.798 94.5134 172.839 102.754C174.177 108.076 173.79 115.562 171.924 120.952C168.44 131.013 159.747 139.082 148.871 142.413L145.739 143.374H86.963C37.6897 143.374 27.9055 143.305 26.4273 142.893C17.2061 140.387 10.3782 134.035 7.35145 125.176C6.54196 122.772 6.43637 121.845 6.40118 117.965C6.40118 112.643 6.89391 110.514 9.2168 105.879C11.8564 100.66 16.6078 96.1959 22.1686 93.758C23.4357 93.2086 24.6675 92.4188 24.9491 91.9725C25.2658 91.4918 25.5474 89.8436 25.653 87.7491C25.7937 85.8606 26.1105 83.3884 26.4273 82.2553C28.7501 73.9802 35.6132 67.3532 44.0601 65.2587C49.3393 63.9196 56.2024 64.572 60.7074 66.7695C64.0509 68.452 66.2682 67.6623 67.0777 64.5377C70.0693 53.0006 79.3608 42.631 90.4473 38.442C93.1574 37.4119 97.4864 36.2788 99.6333 35.9697C102.308 35.6264 109.136 35.7637 111.987 36.2444Z" fill="black"/>
</svg>
