<svg width="200" height="208" viewBox="0 0 200 208" fill="none" xmlns="http://www.w3.org/2000/svg">
<ellipse cx="152" cy="59.6589" rx="44" ry="44.3411" fill="#F8DD3B"/>
<path d="M160.2 104C160.2 135.759 134.658 161.465 103.2 161.465C71.7416 161.465 46.2 135.759 46.2 104C46.2 72.241 71.7416 46.5349 103.2 46.5349C134.658 46.5349 160.2 72.241 160.2 104Z" stroke="black" stroke-width="6"/>
<line x1="104.6" x2="104.6" y2="32.2481" stroke="black" stroke-width="6"/>
<line x1="104.6" y1="175.752" x2="104.6" y2="208" stroke="black" stroke-width="6"/>
<line y1="-3" x2="32.1243" y2="-3" transform="matrix(-0.704371 0.709832 -0.704371 -0.709832 174.627 32.2481)" stroke="black" stroke-width="6"/>
<line x1="168" y1="101" x2="200" y2="101" stroke="black" stroke-width="6"/>
<line y1="101" x2="32" y2="101" stroke="black" stroke-width="6"/>
<line y1="-3" x2="32.1243" y2="-3" transform="matrix(-0.704371 -0.709832 0.704371 -0.709832 54.6274 55.0509)" stroke="black" stroke-width="6"/>
<line y1="-3" x2="32.1243" y2="-3" transform="matrix(-0.704371 -0.709832 0.704371 -0.709832 174.627 175.981)" stroke="black" stroke-width="6"/>
<line y1="-3" x2="32.1243" y2="-3" transform="matrix(-0.704371 0.709832 -0.704371 -0.709832 54.6274 153.178)" stroke="black" stroke-width="6"/>
</svg>
