<svg width="200" height="208" viewBox="0 0 200 208" fill="none" xmlns="http://www.w3.org/2000/svg">
<ellipse cx="152" cy="59.6589" rx="44" ry="44.3411" fill="#F8DD3B"/>
<path d="M161.2 104C161.2 136.304 135.218 162.465 103.2 162.465C71.182 162.465 45.2 136.304 45.2 104C45.2 71.696 71.182 45.5349 103.2 45.5349C135.218 45.5349 161.2 71.696 161.2 104Z" stroke="black" stroke-width="4"/>
<line x1="103.6" x2="103.6" y2="32.2481" stroke="black" stroke-width="4"/>
<line x1="103.6" y1="175.752" x2="103.6" y2="208" stroke="black" stroke-width="4"/>
<line y1="-2" x2="32.1243" y2="-2" transform="matrix(-0.704371 0.709832 -0.704371 -0.709832 174.627 32.2481)" stroke="black" stroke-width="4"/>
<line x1="168" y1="102" x2="200" y2="102" stroke="black" stroke-width="4"/>
<line y1="102" x2="32" y2="102" stroke="black" stroke-width="4"/>
<line y1="-2" x2="32.1243" y2="-2" transform="matrix(-0.704371 -0.709832 0.704371 -0.709832 54.6274 55.0509)" stroke="black" stroke-width="4"/>
<line y1="-2" x2="32.1243" y2="-2" transform="matrix(-0.704371 -0.709832 0.704371 -0.709832 174.627 175.981)" stroke="black" stroke-width="4"/>
<line y1="-2" x2="32.1243" y2="-2" transform="matrix(-0.704371 0.709832 -0.704371 -0.709832 54.6274 153.178)" stroke="black" stroke-width="4"/>
</svg>
