<?xml version="1.0" standalone="no"?>
<!DOCTYPE svg PUBLIC "-//W3C//DTD SVG 20010904//EN"
 "http://www.w3.org/TR/2001/REC-SVG-20010904/DTD/svg10.dtd">
<svg version="1.0" xmlns="http://www.w3.org/2000/svg"
 width="512.000000pt" height="512.000000pt" viewBox="0 0 512.000000 512.000000"
 preserveAspectRatio="xMidYMid meet">

<g transform="translate(0.000000,512.000000) scale(0.100000,-0.100000)"
fill="#000000" stroke="none">
<path d="M1835 4656 c-343 -81 -598 -383 -607 -722 -2 -87 16 -121 73 -140 71
-24 134 21 143 103 23 188 64 283 170 389 110 110 240 164 394 164 252 0 478
-181 537 -431 69 -293 -119 -594 -416 -664 -55 -13 -203 -15 -1049 -15 -943 0
-987 -1 -1020 -19 -40 -21 -66 -75 -56 -117 4 -15 20 -40 36 -56 l29 -29 1043
3 1043 3 80 27 c130 45 220 101 316 197 96 96 153 187 196 316 24 72 27 95 27
225 1 162 -14 233 -79 360 -94 185 -263 326 -470 393 -80 25 -304 33 -390 13z"/>
<path d="M3918 4430 c-400 -84 -699 -386 -782 -792 -9 -42 -16 -111 -16 -152
0 -65 3 -78 26 -105 33 -39 83 -50 131 -27 43 21 59 57 67 163 21 265 186 507
428 629 117 59 206 79 348 78 150 0 215 -16 350 -82 171 -83 328 -265 385
-445 37 -116 49 -231 35 -334 -24 -187 -94 -328 -224 -459 -125 -125 -265
-197 -434 -223 -50 -8 -686 -11 -2109 -11 -1992 0 -2039 -1 -2069 -19 -66 -40
-66 -142 0 -182 30 -18 78 -19 2094 -19 2044 0 2065 0 2165 21 351 71 640 326
756 667 109 321 37 692 -188 958 -232 277 -612 408 -963 334z"/>
<path d="M48 1980 c-59 -46 -59 -137 0 -176 26 -18 97 -19 1997 -24 l1970 -5
65 -25 c389 -152 496 -626 206 -916 -109 -109 -240 -164 -391 -164 -231 0
-442 148 -521 365 -12 33 -27 101 -33 150 -9 81 -14 93 -41 118 -44 40 -107
38 -149 -4 -28 -28 -31 -36 -31 -97 1 -351 283 -682 634 -743 110 -19 284 -7
381 25 241 81 420 260 501 501 32 97 44 271 25 381 -42 240 -207 452 -436 560
-168 79 -9 74 -2198 74 -1928 0 -1955 0 -1979 -20z"/>
</g>
</svg>
